PathFileType	4	(X/Y/Z)	s04c0202.trc
DataRate	CameraRate	NumFrames	NumMarkers	Units	OrigDataRate	OrigDataStartFrame	OrigNumFrames
200	200	6	50	mm	200	250	2000
Frame#	Time	racr			lacr			c7			jug			rlel			rdr			llel			ldr			s2			lic			ric			lasi			rasi			rpsi			lpsi			rgt			lgt			rth1			rth2			rth3			rth4			rlfc			rmfc			rsh1			rsh2			rsh3			rsh4			rlmal			rmmal			rcal			rtoe			rmt5			lth1			lth2			lth4			lth3			llfc			lmfc			lsh1			lsh2			lsh3			lsh4			llmal			lmmal			lcal			ltoe			lmt5			SBIKE			LBIKE			RBIKE			
		X1	Y1	Z1	X2	Y2	Z2	X3	Y3	Z3	X4	Y4	Z4	X5	Y5	Z5	X6	Y6	Z6	X7	Y7	Z7	X8	Y8	Z8	X9	Y9	Z9	X10	Y10	Z10	X11	Y11	Z11	X12	Y12	Z12	X13	Y13	Z13	X14	Y14	Z14	X15	Y15	Z15	X16	Y16	Z16	X17	Y17	Z17	X18	Y18	Z18	X19	Y19	Z19	X20	Y20	Z20	X21	Y21	Z21	X22	Y22	Z22	X23	Y23	Z23	X24	Y24	Z24	X25	Y25	Z25	X26	Y26	Z26	X27	Y27	Z27	X28	Y28	Z28	X29	Y29	Z29	X30	Y30	Z30	X31	Y31	Z31	X32	Y32	Z32	X33	Y33	Z33	X34	Y34	Z34	X35	Y35	Z35	X36	Y36	Z36	X37	Y37	Z37	X38	Y38	Z38	X39	Y39	Z39	X40	Y40	Z40	X41	Y41	Z41	X42	Y42	Z42	X43	Y43	Z43	X44	Y44	Z44	X45	Y45	Z45	X46	Y46	Z46	X47	Y47	Z47	X48	Y48	Z48	X49	Y49	Z49	X50	Y50	Z50	
250	1.2500	467.623083	1476.439502	-136.760548	463.927057	1464.513675	-430.253161	443.383767	1521.348227	-289.430332	461.528421	1374.283351	-284.298540	502.103169	1163.469413	-33.753494	795.515997	1026.078938	-223.055664	491.644946	1175.582345	-528.259939	636.393404	839.073065	-504.671356	-60.621995	1176.638251	-291.184409	99.825537	1189.802145	-440.260303	101.156642	1167.068101	-127.209240	133.624109	1139.424065	-398.258745	145.904126	1114.779055	-171.266245	-27.251238	1212.293977	-242.435692	-33.113860	1221.759267	-317.615922	47.451812	1104.646864	-114.927353	57.268923	1121.542213	-486.310506	127.150007	957.679190	-93.432462	181.687281	888.822350	-103.000258	197.417320	804.613869	-107.899693	210.457849	903.899118	-121.774396	241.626555	666.087487	-134.255634	214.289201	648.386217	-244.507791	179.943154	555.108942	-107.205646	164.390120	465.588133	-120.712613	106.157683	401.739154	-124.638671	192.510966	455.994744	-146.229119	53.131326	258.210830	-132.397412	72.320972	262.820620	-218.721887	-21.106693	230.644357	-171.954878	275.243073	182.976178	-161.842431	205.932152	166.840267	-106.664846	120.123782	1071.079111	-495.609653	205.547624	1063.001861	-503.590420	219.086592	1093.974842	-488.731659	277.501516	1011.776688	-517.266069	417.328798	930.881533	-502.998806	456.925795	915.203514	-394.515062	373.973270	824.654049	-514.704212	346.972676	746.398392	-485.760932	281.305511	687.162303	-475.375824	371.764745	737.913373	-456.821747	195.391913	572.566922	-451.611279	197.976229	581.693652	-362.776986	112.504487	562.996013	-403.254588	407.383581	503.541817	-421.747448	329.438171	477.189347	-479.441897	-149.941138	919.049820	-290.948080	-17.501253	79.284723	-485.478103	-17.478789	79.323881	-84.812277	
251	1.2550	467.642001	1476.423047	-136.749220	463.976395	1464.532608	-430.242856	443.376724	1521.365069	-289.383505	461.569223	1374.288253	-284.297024	501.972533	1163.474114	-33.861814	795.487637	1026.071397	-223.044122	491.664155	1175.601863	-528.261001	636.380338	839.061546	-504.679524	-60.632762	1176.652044	-291.184516	99.816888	1189.763963	-440.220625	101.317677	1167.052388	-126.678887	133.628725	1139.424252	-398.272562	145.904885	1114.761802	-171.259937	-27.242493	1212.294957	-242.425947	-33.100050	1221.761790	-317.637887	47.456965	1104.649595	-114.933303	57.249934	1121.533261	-486.323114	127.118950	957.665704	-93.418093	181.659762	888.821142	-102.989800	197.402778	804.585664	-107.904862	210.448265	903.905573	-121.766107	241.593282	666.090275	-134.252456	214.250918	648.385280	-244.504699	179.936307	555.095485	-107.193813	164.399286	465.557372	-120.693775	106.170944	401.693733	-124.644190	192.474976	455.989649	-146.254940	53.158289	258.170647	-132.403791	72.348985	262.807599	-218.711718	-21.081476	230.593315	-171.970301	275.279010	182.972336	-161.842185	205.974131	166.828895	-106.647460	120.112635	1071.085219	-495.609374	205.558277	1062.999818	-503.578494	219.092072	1093.980375	-488.737968	277.512330	1011.775233	-517.260628	417.314934	930.890990	-502.999071	456.907382	915.207408	-394.492434	373.972697	824.672495	-514.703182	346.965637	746.426390	-485.785789	281.300535	687.179797	-475.382285	371.739822	737.922101	-456.826440	195.373754	572.590860	-451.610353	197.940474	581.728679	-362.796357	112.472649	563.036128	-403.258111	407.344851	503.553512	-421.749331	329.397617	477.208526	-479.455030	-149.999348	919.026703	-290.961031	-17.494273	79.295162	-485.480886	-17.472904	79.314934	-84.796770	
252	1.2600	467.650319	1476.439153	-136.778023	464.020173	1464.542885	-430.222201	443.372809	1521.371506	-289.367199	461.616428	1374.282165	-284.267555	501.997908	1163.475025	-33.866842	795.304660	1025.883936	-223.342702	491.682791	1175.626009	-528.272273	636.395711	839.047641	-504.688101	-60.632148	1176.633226	-291.186000	99.830804	1189.772019	-440.248954	101.328445	1167.010064	-126.685639	133.636547	1139.418181	-398.279522	145.907994	1114.735187	-171.260264	-27.248442	1212.280038	-242.446860	-33.107396	1221.757342	-317.632575	47.457538	1104.651102	-114.939415	57.274649	1121.526935	-486.321407	127.100427	957.666040	-93.415751	181.627020	888.806441	-102.979739	197.357302	804.568113	-107.893352	210.416606	903.863633	-121.747932	241.569395	666.070008	-134.252667	214.217653	648.372801	-244.492721	179.907079	555.077694	-107.191418	164.392421	465.553045	-120.704990	106.162894	401.681213	-124.644753	192.472503	455.964225	-146.250477	53.171878	258.122455	-132.404215	72.343446	262.767031	-218.714785	-21.042808	230.549637	-171.962628	275.312768	182.981157	-161.837307	205.987748	166.818113	-106.657659	120.124235	1071.078058	-495.606172	205.574363	1062.978388	-503.555453	219.093644	1094.000703	-488.733025	277.513228	1011.783674	-517.259237	417.330009	930.908923	-503.004723	456.930108	915.214215	-394.499328	373.963918	824.687759	-514.721625	346.958139	746.424644	-485.769791	281.278354	687.212446	-475.396804	371.730908	737.950906	-456.836139	195.343419	572.624625	-451.614082	197.917226	581.747446	-362.784681	112.452415	563.076794	-403.261554	407.300297	503.572047	-421.753147	329.356019	477.218359	-479.447461	-149.971216	918.999529	-291.042235	-17.511785	79.296898	-485.478195	-17.487426	79.325852	-84.806202	
253	1.2650	467.692951	1476.449264	-136.789102	464.056842	1464.556864	-430.179614	443.365540	1521.375462	-289.344503	461.668483	1374.278912	-284.264249	502.008291	1163.491990	-33.848240	795.524223	1026.130743	-223.004960	491.694417	1175.626372	-528.263093	636.383347	839.051035	-504.666317	-60.621763	1176.636366	-291.207414	99.855505	1189.778436	-440.262434	101.329294	1167.012537	-126.692643	133.623922	1139.388294	-398.240231	145.901038	1114.668526	-171.298737	-27.248463	1212.279916	-242.446858	-33.111469	1221.758286	-317.625690	47.457689	1104.642847	-114.945351	57.274946	1121.534885	-486.320236	127.069351	957.644817	-93.409716	181.611471	888.793180	-102.976279	197.321475	804.555852	-107.883415	210.398168	903.837507	-121.738738	241.538363	666.068361	-134.252649	214.114642	648.385170	-244.616841	179.892453	555.057371	-107.191228	164.383654	465.531214	-120.684641	106.175017	401.641318	-124.640722	192.479775	455.950089	-146.239150	53.189815	258.094142	-132.394162	72.421679	262.707015	-218.706826	-21.017335	230.516442	-171.969068	275.353957	182.977965	-161.824584	206.047990	166.770310	-106.633834	120.130839	1071.090809	-495.601860	205.566853	1063.017908	-503.586094	219.093021	1094.012592	-488.748153	277.520492	1011.788606	-517.236523	417.344827	930.903226	-503.006306	456.946563	915.214291	-394.507629	373.960892	824.708397	-514.720979	346.939047	746.441116	-485.770390	281.255816	687.227036	-475.410773	371.720962	737.952691	-456.825549	195.315622	572.656752	-451.621833	197.870863	581.784854	-362.804046	112.406296	563.115186	-403.266162	407.249104	503.586234	-421.760528	329.318982	477.229006	-479.457167	-150.057658	918.997336	-291.089008	-17.497150	79.293161	-485.475157	-17.484215	79.347818	-84.817267	
254	1.2700	467.693087	1476.454776	-136.787673	464.132020	1464.567818	-430.200987	443.368499	1521.381915	-289.336368	461.705547	1374.282275	-284.249642	502.025354	1163.481060	-33.862714	795.443893	1025.980062	-223.149848	491.715743	1175.635291	-528.281331	636.384389	839.037558	-504.670173	-60.620241	1176.585192	-291.275465	99.839375	1189.753074	-440.250792	101.347334	1166.993172	-126.708051	133.622478	1139.399160	-398.240146	145.910624	1114.665537	-171.312735	-27.251312	1212.293733	-242.435671	-33.096622	1221.759226	-317.647389	47.458665	1104.645026	-114.946713	57.270391	1121.532070	-486.339638	127.053859	957.622529	-93.401056	181.582725	888.772680	-102.961596	197.316715	804.518288	-107.876071	210.374042	903.832708	-121.722846	241.511835	666.061214	-134.248357	214.091648	648.366189	-244.612118	179.854253	555.046781	-107.174793	164.342934	465.482855	-120.693207	106.173518	401.604459	-124.623751	192.477064	455.951610	-146.234830	53.225208	258.065542	-132.420464	72.420510	262.684347	-218.706330	-20.986055	230.468400	-171.963701	275.391096	182.962112	-161.818630	206.093474	166.770692	-106.647962	120.142788	1071.087419	-495.552550	205.579229	1063.021419	-503.578962	219.099090	1094.016312	-488.753082	277.525787	1011.803998	-517.240420	417.353731	930.911702	-502.988083	456.946563	915.214291	-394.507629	373.958302	824.708888	-514.730161	346.940819	746.451803	-485.774641	281.237325	687.239697	-475.399218	371.719180	737.972181	-456.833475	195.279086	572.680826	-451.624522	196.754788	581.719977	-363.642587	112.376409	563.152233	-403.271046	407.215455	503.602448	-421.743292	329.272009	477.237905	-479.448635	-149.913102	919.049584	-290.909787	-17.488375	79.280285	-485.482057	-17.489883	79.342421	-84.814016	
255	1.2750	467.725485	1476.443523	-136.779984	464.170910	1464.570732	-430.192794	443.351648	1521.381181	-289.317635	461.747683	1374.251156	-284.248997	502.025051	1163.506243	-33.850491	795.469169	1026.026248	-223.127648	491.727131	1175.627586	-528.254178	636.381563	839.063791	-504.671101	-60.618296	1176.582818	-291.270270	99.849704	1189.721151	-440.227416	101.332022	1166.961454	-126.725373	133.626033	1139.393512	-398.252085	145.924204	1114.632330	-171.303620	-27.262816	1212.272544	-242.441150	-33.130619	1221.741266	-317.620326	47.439650	1104.623506	-114.958875	57.283294	1121.526435	-486.341196	127.006292	957.613646	-93.347064	181.569054	888.759064	-102.938370	197.271568	804.507833	-107.863334	210.370106	903.747597	-121.767412	241.488014	666.055099	-134.230403	214.048305	648.360454	-244.597778	179.840239	555.016465	-107.178103	164.369275	465.496160	-120.664956	106.166101	401.568503	-124.631288	192.499854	455.947277	-146.199430	53.255315	258.021177	-132.403416	72.494942	262.629422	-218.696387	-20.954275	230.421191	-171.950650	275.430257	182.958482	-161.838528	206.118431	166.744274	-106.629453	120.153916	1071.096805	-495.563044	205.590272	1063.020267	-503.564188	219.122090	1094.028507	-488.735168	277.542140	1011.807274	-517.232485	417.352473	930.917903	-502.985256	456.944755	915.209499	-394.491178	373.973223	824.709309	-514.702362	346.917507	746.449352	-485.756551	281.227505	687.258626	-475.393923	371.707377	737.982701	-456.817631	195.255581	572.713230	-451.620190	196.715044	581.758777	-363.643998	112.338682	563.214378	-403.298405	407.169696	503.600153	-421.729673	329.218616	477.290274	-479.472140	-149.971216	918.999468	-291.042235	-17.511934	79.290868	-485.484891	-17.487472	79.336606	-84.817606	
